<svg xmlns="http://www.w3.org/2000/svg" viewBox="0 0 84.39 84.39"><defs><style>.cls-1{fill:none;stroke:#000;stroke-miterlimit:10;}</style></defs><g id="Capa_2" data-name="Capa 2"><g id="Layer_1" data-name="Layer 1"><path d="M57.3,70.86H46.36a.91.91,0,0,1-.91-.91V47.71a3.37,3.37,0,0,1-1.52.36h-.22a3.33,3.33,0,0,1-3.33-3.33v-12A5.7,5.7,0,0,1,46.07,27H57.59a5.71,5.71,0,0,1,5.7,5.7v12A3.34,3.34,0,0,1,60,48.07h-.22a3.37,3.37,0,0,1-1.52-.36V70A.91.91,0,0,1,57.3,70.86ZM47.27,69h9.12V44.74a.91.91,0,0,1,1.82,0,1.52,1.52,0,0,0,1.52,1.51H60a1.52,1.52,0,0,0,1.52-1.51v-12a3.88,3.88,0,0,0-3.88-3.88H46.07a3.88,3.88,0,0,0-3.87,3.88v12a1.52,1.52,0,0,0,1.51,1.51h.22a1.52,1.52,0,0,0,1.52-1.51.91.91,0,1,1,1.82,0Z"/><path d="M46.36,45.65a.91.91,0,0,1-.91-.91V36.57a.91.91,0,0,1,1.82,0v8.17A.91.91,0,0,1,46.36,45.65Z"/><path d="M57.3,45.65a.91.91,0,0,1-.91-.91V36.57a.91.91,0,0,1,1.82,0v8.17A.91.91,0,0,1,57.3,45.65Z"/><path d="M51.83,26a6.1,6.1,0,0,1-5.94-6.23,5.95,5.95,0,1,1,11.88,0A6.09,6.09,0,0,1,51.83,26Zm0-10.63a4.27,4.27,0,0,0-4.12,4.4,4.13,4.13,0,1,0,8.24,0A4.27,4.27,0,0,0,51.83,15.36Z"/><path d="M51.83,70.86a.91.91,0,0,1-.91-.91V51.39a.91.91,0,0,1,1.82,0V70A.91.91,0,0,1,51.83,70.86Z"/><path d="M29.09,69.43a8,8,0,1,1,0-16,7.88,7.88,0,0,1,1.09.08.91.91,0,1,1-.25,1.8,5.83,5.83,0,0,0-.84-.06A6.17,6.17,0,1,0,34.77,59a.91.91,0,1,1,1.67-.71,8,8,0,0,1-7.35,11.11Z"/><path d="M29,65a.92.92,0,0,1-.84-.55l-3.68-8.59a.91.91,0,0,1,1.68-.71l2.72,6.35c1-2.61,3-6.68,6.49-8.69a.91.91,0,1,1,.91,1.57c-4.58,2.66-6.38,9.85-6.4,9.93a.91.91,0,0,1-.81.69Z"/><path d="M29.09,51a8,8,0,1,1,0-16,7.88,7.88,0,0,1,1.09.08.91.91,0,1,1-.25,1.8,5.83,5.83,0,0,0-.84-.05,6.16,6.16,0,1,0,5.68,3.75.91.91,0,0,1,1.67-.71A8,8,0,0,1,29.09,51Z"/><path d="M29,46.5a.92.92,0,0,1-.84-.55l-3.68-8.59a.91.91,0,0,1,1.68-.71L28.88,43c1-2.61,3-6.68,6.49-8.69a.91.91,0,0,1,.91,1.57c-4.57,2.65-6.38,9.86-6.4,9.93a.91.91,0,0,1-.81.69Z"/><path d="M29.09,32.53a8,8,0,1,1,0-16,7.88,7.88,0,0,1,1.09.08.91.91,0,1,1-.25,1.8,5.83,5.83,0,0,0-.84-.06,6.17,6.17,0,1,0,5.68,3.76.91.91,0,0,1,1.67-.71,8,8,0,0,1-7.35,11.11Z"/><path d="M29,28.05a.92.92,0,0,1-.84-.55l-3.68-8.59a.91.91,0,0,1,1.68-.71l2.72,6.35c1-2.61,3-6.68,6.49-8.69a.91.91,0,0,1,.91,1.57c-4.58,2.66-6.38,9.86-6.4,9.93a.91.91,0,0,1-.81.69Z"/><circle class="cls-1" cx="42.2" cy="42.2" r="41.7"/></g></g></svg>