<svg xmlns="http://www.w3.org/2000/svg" viewBox="0 0 84.39 84.39"><defs><style>.cls-1{fill:none;stroke:#000;stroke-miterlimit:10;}</style></defs><g id="Capa_2" data-name="Capa 2"><g id="Layer_1" data-name="Layer 1"><circle class="cls-1" cx="42.2" cy="42.2" r="41.7"/><path d="M26.74,29.11a5.32,5.32,0,1,1,5.08-5.31A5.2,5.2,0,0,1,26.74,29.11Zm0-8.8A3.5,3.5,0,1,0,30,23.8,3.38,3.38,0,0,0,26.74,20.31Z"/><path d="M26.74,66.12a.91.91,0,0,1-.91-.91V49.85a.91.91,0,1,1,1.82,0V65.21A.91.91,0,0,1,26.74,66.12Z"/><path d="M66.74,66.12H15a.91.91,0,0,1,0-1.82h51.7a.91.91,0,0,1,0,1.82Z"/><path d="M44.42,66.12a1,1,0,0,1-.32-.06.93.93,0,0,1-.53-1.18l7.7-20.33a.91.91,0,0,1,1.71.64l-7.7,20.34A.93.93,0,0,1,44.42,66.12Z"/><path d="M59.82,66.12a.93.93,0,0,1-.85-.59L53,49.84V65.21a.91.91,0,0,1-1.82,0V44.87A.91.91,0,0,1,53,44.55l7.69,20.33a.91.91,0,0,1-.52,1.18A1,1,0,0,1,59.82,66.12Z"/><path d="M41.69,40.84a.91.91,0,0,1-.48-1.68l6.58-4.1a.94.94,0,0,1,1,0l2.83,1.72L55,33.92a1,1,0,0,1,.58-.2h3.67l2-3.86a.91.91,0,1,1,1.61.85l-2.29,4.34a.92.92,0,0,1-.81.49H55.93l-3.69,3a.9.9,0,0,1-1.05.08L48.28,36.9l-6.11,3.8A.84.84,0,0,1,41.69,40.84Z"/><path d="M31.39,66.12h-9.3a.91.91,0,0,1-.91-.91V49.49a3.2,3.2,0,0,1-4.6-2.9V36.26a5.51,5.51,0,0,1,5.51-5.51h9.15a28,28,0,0,0,9.51-6.35,3.26,3.26,0,0,1,4.31-.24,3.1,3.1,0,0,1,.83,4.15A20.65,20.65,0,0,1,32.3,37.48V65.21A.91.91,0,0,1,31.39,66.12ZM23,64.3h7.48V36.72a.91.91,0,0,1,.77-.9,18.89,18.89,0,0,0,13.08-8.44A1.32,1.32,0,0,0,44,25.59a1.45,1.45,0,0,0-1.91.1,28.94,28.94,0,0,1-10.36,6.84.92.92,0,0,1-.29,0h-9.3a3.7,3.7,0,0,0-3.69,3.69V46.59a1.39,1.39,0,1,0,2.78,0,.91.91,0,1,1,1.82,0Z"/><path d="M22.09,47.5a.91.91,0,0,1-.91-.91v-7.8a.91.91,0,1,1,1.82,0v7.8A.9.9,0,0,1,22.09,47.5Z"/><path d="M66.74,45.78h-2.3a.91.91,0,0,1,0-1.82h1.39V23.37a.91.91,0,0,1,.91-.91h1.7V20.1H35.81v2.36h1.7a.91.91,0,0,1,.91.91V26.5a29.24,29.24,0,0,0,2.33-2.1,3.26,3.26,0,0,1,4.31-.24,3.1,3.1,0,0,1,.83,4.15,20,20,0,0,1-7.47,7V44h19.5a.91.91,0,0,1,0,1.82H37.51a.91.91,0,0,1-.91-.91V34.73a.9.9,0,0,1,.49-.81,18.53,18.53,0,0,0,7.24-6.54A1.32,1.32,0,0,0,44,25.59a1.45,1.45,0,0,0-1.91.1,32.49,32.49,0,0,1-4,3.38.91.91,0,0,1-.95.07.9.9,0,0,1-.49-.81v-4H34.9a.91.91,0,0,1-.91-.91V19.19a.9.9,0,0,1,.91-.91H69.35a.9.9,0,0,1,.91.91v4.18a.91.91,0,0,1-.91.91h-1.7V44.87A.91.91,0,0,1,66.74,45.78Z"/><path d="M60.53,24.28h-23a.91.91,0,0,1,0-1.82h23a.91.91,0,0,1,0,1.82Z"/></g></g></svg>