<svg xmlns="http://www.w3.org/2000/svg" width="70" height="70" fill="none" viewBox="0 0 70 70">
  <path fill="#000" d="M57.43 47.017c-.788.904-2.16 2.333-4.376 2.333-3.092 0-4.112-2.246-5.046-4.608l-4.666-11.463-4.667 11.463c-.758 1.925-1.633 4.608-5.046 4.608-3.412 0-4.258-2.683-5.075-4.608l-7.817-19.309h6.592l6.3 15.896 4.696-11.579c.73-1.837 1.604-4.608 5.017-4.608 3.325 0 4.258 2.77 5.016 4.608l5.104 12.542c2.596-3.967 3.705-8.75 3.063-13.446a19.577 19.577 0 00-6.533-12.134 19.626 19.626 0 00-12.892-4.87c-4.93-.03-9.713 1.516-13.767 4.375a23.52 23.52 0 00-8.4 11.608 23.29 23.29 0 000 14.38 22.966 22.966 0 008.488 11.578A23.09 23.09 0 0037.1 58.158c2.13 0 4.23-.291 6.27-.875v6.154c-2.07.467-4.17.73-6.27.73a29.447 29.447 0 01-17.208-5.542A28.984 28.984 0 019.246 44.042a28.825 28.825 0 01-.03-18.084 29.21 29.21 0 0110.676-14.583C24.879 7.758 30.917 5.833 37.1 5.833c14.117 0 25.608 11.492 25.608 25.638 0 5.6-1.866 11.083-5.279 15.546z"/>
</svg>
