<svg width="228" height="186" viewBox="0 0 228 186" fill="none" xmlns="http://www.w3.org/2000/svg">
<g clip-path="url(#clip0)">
<path d="M200.353 -0.183274C194.189 -0.2746 179.872 1.82125 155.967 17.8468C142.939 14.5853 129.076 12.9759 115.19 12.9759C99.9117 12.9759 84.4718 14.9192 70.073 18.8756C35.7525 -4.57659 20.6037 0.22946 20.6037 0.22946C10.714 25.0015 16.8254 43.342 18.6829 47.897C7.05901 60.4628 -0.0371094 76.5088 -0.0371094 96.175C-0.0371094 111.022 1.64992 124.338 5.77159 135.914C6.00018 136.808 5.92609 136.609 6.31122 137.373C7.21926 139.77 8.22888 142.096 9.36366 144.342C9.7525 145.151 10.1064 145.749 10.1064 145.749C21.6928 167.382 44.5334 181.357 85.1722 185.744L146.636 185.814C189.976 181.509 210.772 167.493 220.356 145.714L220.965 144.296C221.873 142.096 222.664 139.807 224.83 132.101C226.995 124.396 227.963 111.051 227.963 96.169C227.963 74.8246 219.96 57.7457 206.963 44.7523C209.234 37.409 212.268 21.1009 203.934 0.223508C203.934 0.223508 202.765 -0.147562 200.353 -0.18346L200.353 -0.183274ZM151.916 78.1447C161.924 78.1229 170.496 79.844 176.933 86.6075V86.6133C184.986 95.0839 189.699 105.311 189.699 116.332C189.699 167.79 156.658 169.19 115.904 169.19C75.1431 169.19 42.1092 162.059 42.1092 116.332C42.1092 105.384 46.7532 95.218 54.7072 86.7818C67.9753 72.722 90.4283 80.1672 115.904 80.1672C128.981 80.1652 141.263 78.1677 151.917 78.1445L151.916 78.1447ZM76.0034 93.2977C67.5235 93.2977 60.6489 104.782 60.6489 118.954C60.6489 133.128 67.5231 144.616 76.0034 144.616C84.4833 144.616 91.3579 133.128 91.3579 118.954C91.3579 104.784 84.4837 93.308 76.0034 93.2977ZM158.386 93.2977C149.907 93.2977 143.032 104.782 143.032 118.954C143.032 133.128 149.906 144.616 158.386 144.616C166.866 144.616 173.741 133.128 173.741 118.954C173.741 104.784 166.867 93.308 158.386 93.2977Z" fill="white"/>
</g>
<defs>
<clipPath id="clip0">
<rect width="228" height="186" fill="white"/>
</clipPath>
</defs>
</svg>
