<svg xmlns="http://www.w3.org/2000/svg" width="70" height="70" fill="none" viewBox="0 0 70 70">
  <path fill="#000" d="M22.75 5.833h24.5c9.333 0 16.917 7.584 16.917 16.917v24.5A16.917 16.917 0 0147.25 64.167h-24.5c-9.333 0-16.917-7.584-16.917-16.917v-24.5A16.916 16.916 0 0122.75 5.833zm-.583 5.834a10.5 10.5 0 00-10.5 10.5v25.666c0 5.805 4.696 10.5 10.5 10.5h25.666a10.5 10.5 0 0010.5-10.5V22.167c0-5.805-4.695-10.5-10.5-10.5H22.167zm28.146 4.375a3.646 3.646 0 110 7.292 3.646 3.646 0 010-7.292zM35 20.417a14.584 14.584 0 110 29.167 14.584 14.584 0 010-29.167zm0 5.833a8.75 8.75 0 100 17.5 8.75 8.75 0 000-17.5z"/>
</svg>
