<svg xmlns="http://www.w3.org/2000/svg" viewBox="0 0 84.39 84.39"><defs><style>.cls-1{fill:none;stroke:#000;stroke-miterlimit:10;}</style></defs><g id="Capa_2" data-name="Capa 2"><g id="Layer_1" data-name="Layer 1"><path d="M46.65,62.19H37.74a.91.91,0,0,1-.91-.91V43.45a2.86,2.86,0,0,1-1.06.21h-.18a2.89,2.89,0,0,1-2.88-2.89V31a4.8,4.8,0,0,1,4.8-4.8h9.37A4.81,4.81,0,0,1,51.69,31v9.77a2.9,2.9,0,0,1-2.89,2.89h-.18a2.9,2.9,0,0,1-1.06-.21V61.28A.91.91,0,0,1,46.65,62.19Zm-8-1.82h7.09V40.77a.91.91,0,1,1,1.82,0,1.06,1.06,0,0,0,1.06,1.06h.18a1.05,1.05,0,0,0,1.06-1.06V31a3,3,0,0,0-3-3H37.51a3,3,0,0,0-3,3v9.77a1.05,1.05,0,0,0,1.06,1.06h.18a1.05,1.05,0,0,0,1.06-1.06.91.91,0,0,1,1.82,0Z"/><path d="M37.74,41.68a.91.91,0,0,1-.91-.91V34.13a.91.91,0,0,1,1.82,0v6.64A.91.91,0,0,1,37.74,41.68Z"/><path d="M46.65,41.68a.91.91,0,0,1-.91-.91V34.13a.91.91,0,0,1,1.82,0v6.64A.91.91,0,0,1,46.65,41.68Z"/><path d="M42.2,25.69a5.13,5.13,0,0,1-5-5.24,5,5,0,1,1,10,0A5.13,5.13,0,0,1,42.2,25.69Zm0-8.65A3.3,3.3,0,0,0,39,20.45a3.19,3.19,0,1,0,6.36,0A3.31,3.31,0,0,0,42.2,17Z"/><path d="M42.2,62.19a.91.91,0,0,1-.91-.91V46.18a.91.91,0,0,1,1.82,0v15.1A.91.91,0,0,1,42.2,62.19Z"/><path d="M61.17,62.19h-7.6a.91.91,0,0,1-.91-.91v-15a2.43,2.43,0,0,1-.77.12.91.91,0,1,1,0-1.82.76.76,0,0,0,.77-.77.91.91,0,0,1,1.82,0V60.37h5.78V43.78a.91.91,0,0,1,1.82,0,.77.77,0,0,0,.78.77H63a.76.76,0,0,0,.77-.77V35.44A2.41,2.41,0,0,0,61.37,33h-8a.91.91,0,0,1,0-1.82h8a4.24,4.24,0,0,1,4.23,4.23v8.34A2.59,2.59,0,0,1,63,46.37h-.15a2.54,2.54,0,0,1-.78-.12v15A.91.91,0,0,1,61.17,62.19Z"/><path d="M53.57,44.69a.91.91,0,0,1-.91-.91V38.11a.91.91,0,1,1,1.82,0v5.67A.91.91,0,0,1,53.57,44.69Z"/><path d="M61.17,44.69a.91.91,0,0,1-.91-.91V38.11a.91.91,0,1,1,1.82,0v5.67A.91.91,0,0,1,61.17,44.69Z"/><path d="M57.37,30.62A4.61,4.61,0,1,1,61.77,26,4.51,4.51,0,0,1,57.37,30.62Zm0-7.39A2.79,2.79,0,1,0,60,26,2.69,2.69,0,0,0,57.37,23.23Z"/><path d="M57.37,62.19a.91.91,0,0,1-.91-.91V48.4a.91.91,0,1,1,1.82,0V61.28A.91.91,0,0,1,57.37,62.19Z"/><path d="M30.82,62.19h-7.6a.91.91,0,0,1-.91-.91v-15a2.43,2.43,0,0,1-.77.12h-.16a2.59,2.59,0,0,1-2.59-2.59V35.44A4.24,4.24,0,0,1,23,31.21h8A.91.91,0,0,1,31,33H23a2.41,2.41,0,0,0-2.41,2.41v8.34a.77.77,0,0,0,.77.77h.16a.77.77,0,0,0,.77-.77.91.91,0,1,1,1.82,0V60.37h5.78V43.78a.91.91,0,1,1,1.82,0,.77.77,0,0,0,.77.77.91.91,0,1,1,0,1.82,2.43,2.43,0,0,1-.77-.12v15A.91.91,0,0,1,30.82,62.19Z"/><path d="M30.82,44.69a.91.91,0,0,1-.91-.91V38.11a.91.91,0,0,1,1.82,0v5.67A.91.91,0,0,1,30.82,44.69Z"/><path d="M23.22,44.69a.91.91,0,0,1-.91-.91V38.11a.91.91,0,1,1,1.82,0v5.67A.91.91,0,0,1,23.22,44.69Z"/><path d="M27,30.62A4.61,4.61,0,1,1,31.42,26,4.51,4.51,0,0,1,27,30.62Zm0-7.39A2.79,2.79,0,1,0,29.6,26,2.69,2.69,0,0,0,27,23.23Z"/><path d="M27,62.19a.91.91,0,0,1-.91-.91V48.4a.91.91,0,0,1,1.82,0V61.28A.91.91,0,0,1,27,62.19Z"/><path d="M67.5,69.17H16.89a.91.91,0,0,1-.91-.91V64a.91.91,0,0,1,.91-.91h1.9V61.28a.91.91,0,0,1,.91-.91h45a.91.91,0,0,1,.91.91v1.77h1.9a.91.91,0,0,1,.91.91v4.3A.91.91,0,0,1,67.5,69.17ZM17.8,67.35H66.59V64.87h-1.9a.91.91,0,0,1-.91-.91V62.19H20.61V64a.91.91,0,0,1-.91.91H17.8Z"/><path d="M69.92,69.17H14.47a.91.91,0,0,1,0-1.82H69.92a.91.91,0,1,1,0,1.82Z"/><path d="M58.29,64.87H19.7a.91.91,0,1,1,0-1.82H58.29a.91.91,0,0,1,0,1.82Z"/><circle class="cls-1" cx="42.2" cy="42.2" r="41.7"/></g></g></svg>