<svg xmlns="http://www.w3.org/2000/svg" width="70" height="70" fill="none" viewBox="0 0 70 70">
  <path fill="#000" d="M65.508 17.5a24.99 24.99 0 01-7.175 2.012 12.538 12.538 0 005.484-6.941c-2.421 1.458-5.105 2.479-7.934 3.062-2.304-2.508-5.541-3.966-9.216-3.966-6.855 0-12.455 5.6-12.455 12.512 0 .992.117 1.954.321 2.859C24.15 26.512 14.904 21.525 8.75 13.97a12.379 12.379 0 00-1.692 6.27c0 4.346 2.188 8.197 5.571 10.384-2.07 0-3.996-.583-5.687-1.458v.087c0 6.067 4.316 11.142 10.033 12.28a12.308 12.308 0 01-5.63.203 12.483 12.483 0 0011.667 8.692 24.853 24.853 0 01-15.545 5.367c-.992 0-1.984-.059-2.975-.175a35.421 35.421 0 0019.191 5.629c22.984 0 35.613-19.075 35.613-35.612 0-.555 0-1.08-.03-1.634 2.45-1.75 4.55-3.966 6.242-6.504z"/>
</svg>
